<svg width="1080" height="590" viewBox="0 0 1080 590" fill="none" xmlns="http://www.w3.org/2000/svg">
<g clip-path="url(#clip0)">
<path d="M1080 552.48C1080 520.313 1063.68 494.237 1043.54 494.237C1030.89 494.237 1019.74 504.542 1013.21 520.182C1011 519.265 1008.63 518.79 1006.24 518.784C1000.14 518.784 994.51 521.907 989.915 527.192C984.022 507.691 971.528 494.237 957.065 494.237C943.543 494.237 931.749 506.008 925.456 523.477C921.959 520.526 917.553 518.869 912.978 518.784C897.526 518.784 885 538.796 885 563.483C884.936 571.712 886.432 579.879 889.408 587.551H1072.65C1077.26 577.795 1080 565.65 1080 552.48Z" fill="#75F57A"/>
<path d="M949.299 216.151C920.589 154.044 864.403 101.061 796.528 92.4256C778.581 90.1424 759.844 91.0581 743.193 98.1312C721.336 107.416 705.228 126.156 688.947 143.444C654.476 180.037 615.901 212.534 573.987 240.291C553.3 253.987 531.111 266.766 506.55 270.27C457.304 277.296 408.594 243.714 386.136 199.328C372.106 171.602 365.623 139.049 354.282 110.209C341.221 110.184 325.659 110.189 308.917 110.266C262.64 110.48 224.973 111.163 224.973 111.163C224.973 111.163 269.747 51.856 308.749 73.8289C321.213 80.8508 334.268 87.117 346.266 92.3956C339.45 79.2848 330.852 67.4883 319.025 58.0037C295.704 39.3018 264.118 34.0559 234.256 35.4487C202.9 36.9112 171.255 45.3063 145.775 63.641C100.384 96.303 81.6398 153.794 65.5971 207.364L104.375 226.804C121.008 212.424 145.33 198.199 167.749 210.829C206.752 232.802 251.556 247.391 251.556 247.391C251.556 247.391 214.194 247.053 167.917 247.266C160.145 247.302 152.625 247.351 145.476 247.408L576 463.237C718 465.237 825.068 457.558 960 463.237C967.037 463.533 982.865 426.645 982.918 416.937C983.29 348.516 978.009 278.259 949.299 216.151ZM811.417 234.766C765.14 234.98 727.473 235.663 727.473 235.663C727.473 235.663 772.247 176.356 811.249 198.329C850.252 220.302 895.056 234.891 895.056 234.891C895.056 234.891 857.694 234.553 811.417 234.766L811.417 234.766Z" fill="#F2F2F2"/>
<path d="M106 237C147.421 237 181 203.421 181 162C181 120.579 147.421 87 106 87C64.5786 87 31 120.579 31 162C31 203.421 64.5786 237 106 237Z" fill="#92FF96"/>
<path d="M59.3295 248.789C61.7591 250.888 61.5286 252.877 60.198 254.425C60.1671 254.461 60.1359 254.497 60.1044 254.532C60.0409 254.602 59.9762 254.67 59.91 254.735C58.5953 256.034 56.7704 256.35 54.5108 254.397C52.1725 252.377 51.4535 247.229 51.4027 246.846L51.4028 246.845C51.4008 246.831 51.3999 246.823 51.3999 246.823C51.3999 246.823 56.9 246.69 59.3295 248.789Z" fill="#92FF96"/>
<path d="M59.1732 267.427C61.7577 267.599 62.5995 268.693 62.5248 269.967C62.5231 269.997 62.5208 270.026 62.5181 270.056C62.5128 270.115 62.5054 270.173 62.4959 270.23C62.3073 271.372 61.3063 272.203 58.9027 272.043C56.4153 271.877 53.4015 269.53 53.1788 269.354L53.1786 269.354C53.1702 269.347 53.1659 269.344 53.1659 269.344C53.1659 269.344 56.5889 267.255 59.1732 267.427Z" fill="#92FF96"/>
<path d="M77.399 251.65C77.5997 253.264 76.7802 253.94 75.683 254.078C75.6575 254.081 75.6321 254.084 75.6068 254.086C75.5558 254.092 75.5051 254.096 75.4549 254.098C74.4552 254.147 73.612 253.651 73.4253 252.15C73.2322 250.597 74.829 248.405 74.949 248.242L74.9492 248.242C74.9538 248.236 74.9561 248.233 74.9561 248.233C74.9561 248.233 77.1983 250.036 77.399 251.65Z" fill="#92FF96"/>
<path d="M107.646 201.262L121 170L107.463 209L106 204.667L107.646 201.262Z" fill="#3F3D56"/>
<path d="M96.7789 293.807L55.2064 249.539L108.857 297.096L101.197 299.1L96.7789 293.807Z" fill="#3F3D56"/>
<path d="M104.024 208.643L88 187L104.244 214L106 211L104.024 208.643Z" fill="#3F3D56"/>
<path d="M79.8563 270.023L75.1287 250L78.9598 274.507L80.4983 272.233L79.8563 270.023Z" fill="#3F3D56"/>
<path d="M75.6759 270.625L58 270.166L79.0794 272.438L77.6607 270.57L75.6759 270.625Z" fill="#3F3D56"/>
<path opacity="0.3" d="M932 437.737C932 414.348 917.519 395.388 899.657 395.388C888.429 395.388 878.541 402.881 872.742 414.253C870.75 413.581 868.663 413.238 866.561 413.237C861.125 413.329 855.936 415.519 852.078 419.35C846.851 405.171 835.765 395.388 822.935 395.388C810.938 395.388 800.475 403.947 794.891 416.648C791.616 414.45 787.766 413.264 783.822 413.237C770.113 413.237 759 427.788 759 445.737C758.96 451.791 760.297 457.775 762.911 463.237H925.477C929.836 455.45 932.085 446.66 932 437.737V437.737Z" fill="#00EB09"/>
<path d="M123 464H89L104.5 151L123 464Z" fill="#3F3D56"/>
<path d="M121.79 256.126L103.755 266.539L107 272.16L125.035 261.748L121.79 256.126Z" fill="#3F3D56"/>
<path opacity="0.4" d="M206.997 426.92C206.997 393.827 190.424 367 169.981 367C157.131 367 145.814 377.602 139.177 393.692C136.898 392.741 134.509 392.256 132.103 392.254C125.882 392.384 119.943 395.484 115.528 400.904C109.545 380.842 96.8581 367 82.1736 367C68.4437 367 56.4686 379.11 50.0782 397.081C46.3297 393.971 41.9238 392.292 37.4092 392.254C21.7199 392.254 9.001 412.842 9.001 438.239C8.95507 446.805 10.4856 455.273 13.4767 463H199.532C204.521 451.983 207.095 439.545 206.997 426.92V426.92Z" fill="#00EB09"/>
<path d="M1080 589.237H82V587.237H1079L1080 589.237Z" fill="#2F2E41"/>
<path d="M998 465.237H0V463.237H997L998 465.237Z" fill="#2F2E41"/>
<path d="M415 296.695C415 296.695 421.285 250.601 431.761 263.172C442.237 275.743 431.761 294.6 431.761 294.6L423.381 305.075L415 298.79V296.695Z" fill="#FFB8B8"/>
<path d="M398.488 295.803C398.488 295.803 419.439 272.756 423.63 276.946C427.82 281.137 440.391 283.232 438.296 291.612C436.201 299.993 392.202 327.23 392.202 327.23L398.488 295.803Z" fill="#FFA812"/>
<path opacity="0.1" d="M398.285 296.366C398.285 296.366 419.237 273.319 423.427 277.509C427.618 281.7 440.189 283.795 438.093 292.175C435.998 300.556 392 327.793 392 327.793L398.285 296.366Z" fill="#FFA812"/>
<path d="M279.064 293.708V310.469C279.064 310.469 276.969 348.182 289.539 346.087C302.11 343.991 295.825 312.564 295.825 312.564L293.73 293.708H279.064Z" fill="#FFB8B8"/>
<path d="M285.349 415.227C285.349 415.227 266.493 444.559 260.207 446.654C253.922 448.749 220.399 467.606 216.209 486.462L186.877 524.175L201.543 543.032C201.543 543.032 268.588 471.796 287.444 465.511C306.301 459.225 325.157 427.798 325.157 427.798L285.349 415.227Z" fill="#FFB8B8"/>
<path d="M434.105 367.038C434.105 367.038 473.913 373.324 467.628 398.466C461.342 423.607 400.583 475.986 400.583 475.986L398.488 488.557L375.441 492.748L364.965 482.272L367.06 475.986C367.06 475.986 392.202 452.94 394.297 444.559C396.393 436.178 419.439 402.656 429.915 400.561L415.249 392.18L434.105 367.038Z" fill="#FFB8B8"/>
<path d="M193.162 524.175C193.162 524.175 201.543 511.604 188.972 513.699C176.401 515.795 168.02 517.89 168.02 526.27C168.02 534.651 178.496 593.315 191.067 589.125C203.638 584.935 193.162 566.078 193.162 566.078C193.162 566.078 199.448 549.317 203.638 547.222C207.828 545.127 207.828 534.651 203.638 534.651C199.448 534.651 191.067 528.365 193.162 524.175Z" fill="#2F2E41"/>
<path d="M371.251 478.082C371.251 478.082 371.251 467.606 362.87 478.082C354.489 488.557 350.299 496.938 358.68 503.224C367.06 509.509 396.393 524.175 396.393 524.175C396.393 524.175 427.82 530.461 423.63 515.794C423.63 515.794 402.678 505.319 402.678 496.938C402.678 488.557 402.678 473.891 396.393 478.082C390.107 482.272 371.251 484.367 371.251 478.082Z" fill="#2F2E41"/>
<path d="M331.443 320.945C331.443 320.945 302.11 325.135 304.206 367.038C304.206 367.038 266.493 404.751 276.969 417.322C287.444 429.893 310.491 452.94 318.872 446.654C327.252 440.369 352.394 392.18 352.394 392.18C352.394 392.18 411.059 413.132 421.534 402.656C432.01 392.18 442.486 367.038 442.486 367.038L390.107 339.801L331.443 320.945Z" fill="#2F2E41"/>
<path d="M413.154 201.521C427.039 201.521 438.296 190.264 438.296 176.379C438.296 162.493 427.039 151.237 413.154 151.237C399.268 151.237 388.012 162.493 388.012 176.379C388.012 190.264 399.268 201.521 413.154 201.521Z" fill="#FFB8B8"/>
<path d="M394.297 178.474C394.297 178.474 379.631 201.521 375.441 203.616C371.251 205.711 404.773 226.663 404.773 226.663C404.773 226.663 404.773 199.425 415.249 193.14L394.297 178.474Z" fill="#FFB8B8"/>
<path d="M392.202 201.521C392.202 201.521 358.68 191.045 352.394 207.806C346.109 224.567 331.443 255.995 333.538 276.946C335.633 297.898 339.823 293.708 333.538 299.993C327.252 306.279 323.062 302.088 325.157 310.469C327.252 318.85 329.347 318.85 327.252 323.04C325.157 327.23 352.394 341.896 375.441 343.991L398.488 346.087C398.488 346.087 398.488 308.374 402.678 299.993C406.868 291.613 415.249 274.851 415.249 268.566V251.935C415.249 240.866 412.36 229.988 406.868 220.377V220.377C406.868 220.377 394.297 201.521 392.202 201.521Z" fill="#FFA812"/>
<path d="M367.06 209.901C367.06 209.901 289.539 216.187 281.159 237.138C272.778 258.09 268.588 299.993 276.969 299.993C285.349 299.993 295.825 304.183 297.92 299.993C300.015 295.803 308.396 253.9 310.491 253.9C312.586 253.9 375.441 247.614 375.441 247.614C375.441 247.614 402.678 214.092 367.06 209.901Z" fill="#FFA812"/>
<path d="M414.164 170.146C414.164 170.146 420.836 158.551 429.176 168.622C437.516 178.693 451.083 160.186 449 156.237C446.917 152.288 439.562 156.414 426.958 152.294C414.353 148.174 390.073 139.78 386.007 167.161C381.94 194.543 391.625 191.672 391.625 191.672C391.625 191.672 396.064 167.409 400.076 174.379L404.089 181.348L407.569 182.205L414.164 170.146Z" fill="#2F2E41"/>
<path d="M651.309 105.988C668.25 105.988 681.983 92.2546 681.983 75.3136C681.983 58.3727 668.25 44.6393 651.309 44.6393C634.368 44.6393 620.634 58.3727 620.634 75.3136C620.634 92.2546 634.368 105.988 651.309 105.988Z" fill="#2F2E41"/>
<path d="M641.504 98.0181C641.504 98.0181 643.091 126.59 639.916 126.59C636.742 126.59 659.758 140.083 659.758 140.083L674.044 132.146V122.622C674.044 122.622 654.996 120.241 662.933 99.6054C670.869 78.97 641.504 98.0181 641.504 98.0181Z" fill="#FFB8B8"/>
<path d="M574.835 411.517L572.454 435.327L580.391 437.708L586.74 431.359L589.121 411.517H574.835Z" fill="#FFB8B8"/>
<path d="M689.124 425.01L693.092 440.089L704.203 447.232L716.109 440.883L702.616 418.66L689.124 425.01Z" fill="#FFB8B8"/>
<path d="M649.044 110.32C661.755 110.32 672.06 100.015 672.06 87.3036C672.06 74.592 661.755 64.2872 649.044 64.2872C636.332 64.2872 626.027 74.592 626.027 87.3036C626.027 100.015 636.332 110.32 649.044 110.32Z" fill="#FFB8B8"/>
<path d="M635.154 173.417L629.599 171.036C629.599 171.036 620.075 165.48 619.281 154.369C618.487 143.257 627.218 128.971 627.218 128.971L639.916 125.003L654.836 137.146L654.996 156.75L635.154 173.417Z" fill="#FFB8B8"/>
<path d="M629.599 130.559L626.424 128.971C626.424 128.971 610.551 128.178 608.963 147.226C607.376 166.274 601.82 198.02 601.82 198.02C601.82 198.02 589.121 220.243 589.915 244.053L583.566 264.689C583.566 264.689 574.835 294.848 585.153 294.848C595.471 294.848 594.677 262.308 594.677 262.308C594.677 262.308 613.725 216.275 615.313 208.338C616.9 200.401 630.392 163.099 626.424 152.781C622.456 142.464 629.599 130.559 629.599 130.559Z" fill="#FFB8B8"/>
<path d="M641.504 180.56V189.29C641.504 189.29 647.059 195.639 644.678 199.608C642.297 203.576 639.916 211.513 639.916 211.513L651.028 228.973L688.33 232.148L695.748 182.449L641.504 180.56Z" fill="#FFB8B8"/>
<path d="M676.425 125.003L682.774 121.828C682.774 121.828 696.267 112.304 707.378 110.717L741.506 87.7004L763.729 34.5246C763.729 34.5246 762.935 5.95255 769.284 9.12722C775.634 12.3019 774.84 36.9056 774.84 36.9056C774.84 36.9056 762.935 86.1131 752.617 99.6055C742.3 113.098 704.997 135.321 704.997 135.321C704.997 135.321 694.679 147.226 695.473 152.781C696.267 158.337 676.425 125.003 676.425 125.003Z" fill="#FFB8B8"/>
<path d="M647.059 211.513C647.059 211.513 638.329 205.957 632.773 215.481C627.218 225.005 616.9 227.386 610.551 255.958C604.201 284.53 589.122 329.769 585.153 332.944C581.185 336.119 564.518 369.453 574.042 416.279H589.915L603.408 348.817C603.408 348.817 647.059 294.848 650.234 272.625L664.52 355.96C664.52 355.96 665.314 387.707 677.219 402.787L689.917 432.946L706.584 425.01L687.536 348.817C687.536 348.817 697.06 271.832 690.711 250.403L689.799 222.309C689.799 222.309 663.726 223.418 647.059 211.513Z" fill="#2F2E41"/>
<path d="M580.391 431.359H570.867C569.28 431.359 556.581 441.677 562.137 447.232C567.692 452.788 576.423 463.106 576.423 463.106C576.423 463.106 607.376 467.042 608.17 461.487C608.963 455.931 594.677 444.058 594.677 444.058L590.709 431.359C590.709 431.359 582.772 422.629 580.391 431.359Z" fill="#2F2E41"/>
<path d="M706.584 439.296C706.584 439.296 693.092 438.502 690.711 437.708C688.33 436.915 683.568 458.344 690.711 459.931C697.854 461.518 727.22 463.899 727.22 463.899C727.22 463.899 750.236 463.106 748.649 456.756C747.062 450.407 716.109 437.708 716.109 437.708C716.109 437.708 712.14 429.772 706.584 439.296Z" fill="#2F2E41"/>
<path d="M643.885 124.209L639.916 121.828L635.154 125.797C635.154 125.797 649.44 135.321 646.266 144.051C643.091 152.781 629.599 171.036 629.599 171.036C629.599 171.036 641.504 184.528 641.504 189.29C641.504 189.29 672.457 178.179 695.473 189.29C695.473 189.29 695.473 173.417 698.648 170.242C701.822 167.067 703.41 155.956 695.473 146.432C689.882 139.424 684.84 131.994 680.393 124.209L672.457 119.447L668.369 120.744C668.369 120.744 676.425 129.765 668.488 130.559C660.552 131.352 647.853 128.971 643.885 124.209Z" fill="#F5CA38"/>
<path d="M673.728 23.0164C671.031 26.0263 667.337 27.9608 663.328 28.464C656.394 29.4545 661.842 40.3498 661.842 40.3498C661.842 40.3498 659.861 36.3879 663.823 32.9212C667.785 29.4545 673.728 27.4736 673.728 23.0164Z" fill="#2F2E41"/>
<path d="M660.36 51.1765C665.081 51.1765 668.909 47.3491 668.909 42.6279C668.909 37.9066 665.081 34.0793 660.36 34.0793C655.639 34.0793 651.812 37.9066 651.812 42.6279C651.812 47.3491 655.639 51.1765 660.36 51.1765Z" fill="#2F2E41"/>
<path d="M670.34 51.0455C663.736 47.596 652.375 44.8828 646.339 45.0768L647.866 39.2389C653.21 42.8695 664.511 45.6333 671.867 45.2076L670.34 51.0455Z" fill="#F5CA38"/>
<path d="M656.696 51.5593C656.696 51.5593 646.289 64.9395 625.476 67.9129C604.662 70.8863 621.016 103.594 621.016 103.594C621.016 103.594 615.069 91.7001 626.962 81.2932C638.856 70.8863 656.696 64.9395 656.696 51.5593Z" fill="#2F2E41"/>
<path d="M657.49 50.7656C657.49 50.7656 663.437 71.5794 672.357 74.5528C681.277 77.5262 676.817 108.747 661.95 111.72C661.95 111.72 674.587 94.6232 667.154 81.2429C659.72 67.8626 655.26 57.4558 657.49 50.7656Z" fill="#2F2E41"/>
<path d="M797.46 15.8734H742.696V22.2227H797.46V15.8734Z" fill="#2F2E41"/>
<path d="M797.46 38.0961C800.09 38.0961 802.222 29.568 802.222 19.048C802.222 8.5281 800.09 0 797.46 0C794.83 0 792.698 8.5281 792.698 19.048C792.698 29.568 794.83 38.0961 797.46 38.0961Z" fill="#2F2E41"/>
<path d="M742.696 38.0961C745.326 38.0961 747.458 29.568 747.458 19.048C747.458 8.5281 745.326 0 742.696 0C740.066 0 737.934 8.5281 737.934 19.048C737.934 29.568 740.066 38.0961 742.696 38.0961Z" fill="#2F2E41"/>
<path d="M831.525 442.873H776.762V449.223H831.525V442.873Z" fill="#2F2E41"/>
<path d="M831.525 465.096C834.155 465.096 836.287 456.568 836.287 446.048C836.287 435.528 834.155 427 831.525 427C828.895 427 826.763 435.528 826.763 446.048C826.763 456.568 828.895 465.096 831.525 465.096Z" fill="#2F2E41"/>
<path d="M776.762 465.096C779.392 465.096 781.524 456.568 781.524 446.048C781.524 435.528 779.392 427 776.762 427C774.132 427 772 435.528 772 446.048C772 456.568 774.132 465.096 776.762 465.096Z" fill="#2F2E41"/>
<path opacity="0.5" d="M194 437.737C194 414.348 179.519 395.388 161.657 395.388C150.429 395.388 140.541 402.881 134.742 414.253C132.75 413.581 130.663 413.238 128.561 413.237C123.125 413.329 117.936 415.519 114.078 419.35C108.851 405.171 97.7655 395.388 84.9348 395.388C72.9382 395.388 62.475 403.947 56.8914 416.648C53.616 414.45 49.7664 413.264 45.8218 413.237C32.1131 413.237 21 427.788 21 445.737C20.9599 451.791 22.2971 457.775 24.9106 463.237H187.477C191.836 455.45 194.085 446.66 194 437.737V437.737Z" fill="#00E809"/>
</g>
<defs>
<clipPath id="clip0">
<rect width="1080" height="589.339" fill="white"/>
</clipPath>
</defs>
</svg>
